<?xml version="1.0" encoding="UTF-8"?>
<svg width="284px" height="194px" viewBox="0 0 284 194" version="1.1" xmlns="http://www.w3.org/2000/svg" xmlns:xlink="http://www.w3.org/1999/xlink">
    <!-- Generator: sketchtool 46.1 (44463) - http://www.bohemiancoding.com/sketch -->
    <title>E7FF6FD4-9377-4781-B259-BB13AF81A938</title>
    <desc>Created with sketchtool.</desc>
    <defs></defs>
    <g id="GewoonGers---Website" stroke="none" stroke-width="1" fill="none" fill-rule="evenodd">
        <g id="ESD-+-Gers---StyleSheet" transform="translate(-818.000000, -223.000000)" fill-rule="nonzero">
            <g id="GewoonGers_logo_Dblue+yellow-esd" transform="translate(818.000000, 223.000000)">
                <g id="Group" transform="translate(100.000000, 0.000000)" fill="#292747">
                    <path d="M7.3,14.8 C11.7,14.8 14.4,11.8 14.4,6.9 L6.8,6.9 L6.8,9.5 L11.1,9.5 C10.7,11 9.5,12.2 7.5,12.2 C5,12.2 3.1,10.3 3.1,7.7 C3.1,5.1 4.9,3.2 7.5,3.2 C9,3.2 10.1,4 10.8,5 L13.2,3.7 C12.2,2.1 10.4,0.6 7.5,0.6 C3.4,0.6 0.1,3.4 0.1,7.8 C0.2,12 3.5,14.8 7.3,14.8 Z" id="Shape"></path>
                    <polygon id="Shape" points="26 12.1 19.4 12.1 19.4 9.1 25.8 9.1 25.8 6.6 19.4 6.6 19.4 3.8 26 3.8 26 1.3 16.6 1.3 16.6 14.6 26 14.6"></polygon>
                    <polygon id="Shape" points="34.3 14.6 36.6 5.5 38.9 14.6 41.9 14.6 45.7 1.3 42.6 1.3 40.2 10.9 37.7 1.3 35.5 1.3 33 10.9 30.7 1.3 27.5 1.3 31.3 14.6"></polygon>
                    <path d="M53.6,14.8 C57.6,14.8 60.5,11.9 60.5,7.9 C60.5,3.9 57.6,1 53.6,1 C49.6,1 46.7,3.9 46.7,7.9 C46.7,11.9 49.5,14.8 53.6,14.8 Z M53.6,3.6 C56,3.6 57.6,5.5 57.6,8 C57.6,10.5 56,12.4 53.6,12.4 C51.1,12.4 49.6,10.5 49.6,8 C49.5,5.5 51.1,3.6 53.6,3.6 Z" id="Shape"></path>
                    <path d="M68.8,14.8 C72.8,14.8 75.7,11.9 75.7,7.9 C75.7,3.9 72.8,1 68.8,1 C64.8,1 61.9,3.9 61.9,7.9 C61.9,11.9 64.7,14.8 68.8,14.8 Z M68.8,3.6 C71.2,3.6 72.8,5.5 72.8,8 C72.8,10.5 71.2,12.4 68.8,12.4 C66.3,12.4 64.8,10.5 64.8,8 C64.7,5.5 66.3,3.6 68.8,3.6 Z" id="Shape"></path>
                    <polygon id="Shape" points="80.5 5.9 86.8 14.6 89.6 14.6 89.6 1.3 86.7 1.3 86.7 9.7 80.6 1.3 77.7 1.3 77.7 14.6 80.5 14.6"></polygon>
                </g>
                <g id="Group" transform="translate(90.000000, 129.000000)" fill="#292747">
                    <polygon id="Shape" points="2.6 0.1 0.8 0.1 3.7 7.6 5.6 7.6 8.5 0.1 6.7 0.1 4.7 5.9"></polygon>
                    <rect id="Rectangle-path" x="11.6" y="0.1" width="1.6" height="7.5"></rect>
                    <polygon id="Shape" points="18.6 0.1 17 0.1 17 7.6 18.6 7.6 18.6 2.7 22.1 7.6 23.7 7.6 23.7 0.1 22.1 0.1 22.1 4.8"></polygon>
                    <polygon id="Shape" points="27.1 1.5 29.2 1.5 29.2 7.6 30.8 7.6 30.8 1.5 33 1.5 33 0.1 27.1 0.1"></polygon>
                    <path d="M40.8,7.6 L42.6,7.6 L39.7,0.1 L37.7,0.1 L34.8,7.6 L36.6,7.6 L37.1,6.3 L40.3,6.3 L40.8,7.6 Z M37.6,4.9 L38.8,1.7 L40,4.9 L37.6,4.9 Z" id="Shape"></path>
                    <path d="M48.9,1.4 C49.7,1.4 50.3,1.8 50.7,2.4 L52,1.7 C51.4,0.8 50.5,2.84217094e-14 48.9,2.84217094e-14 C46.7,2.84217094e-14 44.9,1.5 44.9,3.9 C44.9,6.3 46.7,7.8 48.7,7.8 C51.1,7.8 52.5,6.2 52.5,3.5 L48.4,3.5 L48.4,4.9 L50.7,4.9 C50.5,5.7 49.8,6.4 48.8,6.4 C47.4,6.4 46.4,5.4 46.4,3.9 C46.4,2.4 47.6,1.4 48.9,1.4 Z" id="Shape"></path>
                    <polygon id="Shape" points="61 1.5 61 0.1 55.7 0.1 55.7 7.6 61 7.6 61 6.2 57.3 6.2 57.3 4.5 60.9 4.5 60.9 3.1 57.3 3.1 57.3 1.5"></polygon>
                    <path d="M75.6,4.9 C77.2,4.9 78.1,3.8 78.1,2.5 C78.1,1.2 77.2,0.1 75.6,0.1 L72.1,0.1 L72.1,7.6 L73.7,7.6 L73.7,4.9 L75.6,4.9 Z M73.7,1.5 L75.4,1.5 C76,1.5 76.5,1.9 76.5,2.5 C76.5,3.1 76,3.5 75.4,3.5 L73.7,3.5 L73.7,1.5 Z" id="Shape"></path>
                    <path d="M81.4,0.1 L81.4,4.6 C81.4,6.4 82.5,7.7 84.8,7.7 C87.1,7.7 88.2,6.4 88.2,4.6 L88.2,0.1 L86.6,0.1 L86.6,4.5 C86.6,5.5 86,6.3 84.9,6.3 C83.8,6.3 83.1,5.6 83.1,4.5 L83.1,0.1 L81.4,0.1 Z" id="Shape"></path>
                    <rect id="Rectangle-path" x="92" y="0.1" width="1.6" height="7.5"></rect>
                    <polygon id="Shape" points="102.7 1.5 102.7 0.1 97.4 0.1 97.4 7.6 102.7 7.6 102.7 6.2 99 6.2 99 4.5 102.6 4.5 102.6 3.1 99 3.1 99 1.5"></polygon>
                    <polygon id="Shape" points="111.4 4.8 107.9 0.1 106.3 0.1 106.3 7.6 107.9 7.6 107.9 2.7 111.4 7.6 113 7.6 113 0.1 111.4 0.1"></polygon>
                </g>
                <g id="Group" transform="translate(0.000000, 27.000000)" fill="#292747">
                    <path d="M38.7,52 L63.5,52 C61,60.3 54.2,67.6 42.9,67.6 C28.4,67.6 17.9,56.5 17.9,41.5 C17.9,26.5 28.4,15.4 42.9,15.4 C51.2,15.4 58,20.2 61.7,25.8 L75.6,18.2 C69.6,8.8 59.3,0.5 42.8,0.5 C19.5,0.5 0.4,16.5 0.4,41.6 C0.4,66.6 19.5,82.7 41.2,82.7 C66.6,82.7 81.9,65.6 81.9,37.2 L38.7,37.2 L38.7,52 Z" id="Shape"></path>
                    <path d="M210.5,27.4 C210.5,12.6 200.3,1.8 183.7,1.8 L146.5,1.8 L146.5,81.2 L163.4,81.2 L163.4,53 L175.8,53 L191.4,81.2 L210.9,81.2 L192.9,50.9 C201.5,48.9 210.5,41.3 210.5,27.4 Z M181.3,38.1 L163.4,38.1 L163.4,16.6 L181.3,16.6 C188,16.6 193.1,20.6 193.1,27.2 C193.1,34 188,38.1 181.3,38.1 Z" id="Shape"></path>
                    <path d="M237.6,23.4 C237.6,18.6 241.6,15.5 248.8,15.5 C256.9,15.5 265.5,18.2 271.9,24.2 L281.3,11.6 C273.4,4.3 263,0.5 250.3,0.5 C231.6,0.5 220.2,11.5 220.2,24.7 C220.2,54.6 265.9,44.9 265.9,58.8 C265.9,63.4 261.5,67.6 252.1,67.6 C241.1,67.6 232.4,62.6 226.9,56.8 L217.6,70 C225.1,77.5 236.1,82.6 251.4,82.6 C272.7,82.6 283.2,71.6 283.2,57.1 C283.2,27.5 237.6,35.9 237.6,23.4 Z" id="Shape"></path>
                    <g transform="translate(90.000000, 1.000000)">
                        <polygon id="Shape" points="47.2 13.9 47.2 0.8 0.5 0.8 0.5 57.1 47.2 57.1 47.2 43.9 15 43.9 15 35 46.7 35 46.7 21.9 15 21.9 15 13.9"></polygon>
                        <rect id="Rectangle-path" x="0.5" y="66.3" width="46.7" height="13.9"></rect>
                    </g>
                </g>
                <g id="Group" transform="translate(95.000000, 161.000000)">
                    <path d="M8.1,11.2 C6.5,11.2 5.1,11.8 4.1,12.8 L4.1,5.4 L0.6,5.4 L0.6,25.3 L4,25.3 L4,23.8 C5.1,24.9 6.5,25.6 8.2,25.6 C11.8,25.6 14.7,22.5 14.7,18.4 C14.6,14.3 11.7,11.2 8.1,11.2 Z M7.6,22.3 C5.7,22.3 4.1,20.6 4.1,18.4 C4.1,16.2 5.7,14.4 7.6,14.4 C9.5,14.4 11.1,16.1 11.1,18.4 C11.1,20.6 9.5,22.3 7.6,22.3 Z" id="Shape" fill="#292747"></path>
                    <path d="M25.4,19.5 C25.4,21 24.3,22.2 22.7,22.2 C20.4,22.2 20.1,20.3 20.1,19.5 L20.1,11.5 L16.6,11.5 L16.6,19.5 C16.6,23.1 18.8,25.5 22.2,25.5 C23.5,25.5 24.5,25.1 25.3,24.4 L25.3,26 C25.3,27.3 24.6,28.6 22.7,28.6 C21.5,28.6 20.6,28.1 20.4,27.1 L16.7,27.1 C17.2,29.9 19.7,31.9 22.7,31.9 C26.4,31.9 28.8,29.4 28.8,25.7 L28.8,11.4 L25.3,11.4 L25.3,19.5 L25.4,19.5 Z" id="Shape" fill="#292747"></path>
                    <g transform="translate(40.000000, 0.000000)" id="Shape" fill="#FFDE00">
                        <path d="M16.8,14.4 C14.7,14.4 13.8,15.8 13.7,17.1 L20,17.1 C19.9,15.9 19.1,14.4 16.8,14.4 Z"></path>
                        <path d="M44.4,14.6 C42.6,14.6 41.1,16.2 41.1,18.3 C41.1,20.3 42.6,21.9 44.4,21.9 C46.2,21.9 47.7,20.3 47.7,18.3 C47.7,16.2 46.3,14.6 44.4,14.6 Z"></path>
                        <path d="M60.3,0.3 L1.7,0.3 C1.1,0.3 0.7,0.7 0.7,1.3 L0.7,31.6 C0.7,32.2 1.1,32.6 1.7,32.6 L60.3,32.6 C60.9,32.6 61.3,32.2 61.3,31.6 L61.3,1.3 C61.3,0.7 60.8,0.3 60.3,0.3 Z M23.2,19.4 L13.7,19.4 C13.9,21 15.2,22.2 17.4,22.2 C18.5,22.2 20,21.8 20.8,21 L22.3,23.2 C21,24.4 19,25 17.1,25 C13.2,25 10.3,22.4 10.3,18.3 C10.3,14.6 13,11.6 16.9,11.6 C20.7,11.6 23.3,14.4 23.3,18.6 L23.3,19.4 L23.2,19.4 Z M30.7,25 C27.4,25 25,23.3 24.6,20.5 L27.9,20.5 C28.3,21.6 29.7,22 30.6,22 C31.9,22 32.9,21.6 32.9,20.9 C32.9,20.2 32.5,19.9 30.2,19.5 C27.9,19.2 24.8,18.5 24.8,15.7 C24.8,13.7 26.6,11.6 30.3,11.6 C33.2,11.6 35.4,13.2 35.9,15.6 L32.5,15.6 C32.3,15 31.6,14.5 30.4,14.5 C28.9,14.5 28.3,15 28.3,15.5 C28.3,16.2 29.2,16.4 30.8,16.6 C34,17.1 36.3,17.8 36.3,20.6 C36.3,23.2 34,25 30.7,25 Z M51,24.7 L47.9,24.7 L47.9,23.3 C46.9,24.3 45.5,24.9 44,24.9 C40.7,24.9 37.9,22 37.9,18.2 C37.9,14.4 40.7,11.5 44,11.5 C45.5,11.5 46.8,12 47.8,13 L47.8,6.1 L51.1,6.1 L51.1,24.7 L51,24.7 Z"></path>
                    </g>
                </g>
            </g>
        </g>
    </g>
</svg>