<?xml version="1.0" encoding="UTF-8"?>
<svg width="284px" height="194px" viewBox="0 0 284 194" version="1.1" xmlns="http://www.w3.org/2000/svg" xmlns:xlink="http://www.w3.org/1999/xlink">
    <!-- Generator: sketchtool 46.1 (44463) - http://www.bohemiancoding.com/sketch -->
    <title>C8569ED2-95F7-4C69-91F2-BFC457925AAC</title>
    <desc>Created with sketchtool.</desc>
    <defs></defs>
    <g id="GewoonGers---Website" stroke="none" stroke-width="1" fill="none" fill-rule="evenodd">
        <g id="ESD-+-Gers---StyleSheet" transform="translate(-178.000000, -223.000000)" fill-rule="nonzero">
            <g id="Group-2" transform="translate(178.000000, 223.000000)">
                <path d="M107.3,14.8 C111.7,14.8 114.4,11.8 114.4,6.9 L106.8,6.9 L106.8,9.5 L111.1,9.5 C110.7,11 109.5,12.2 107.5,12.2 C105,12.2 103.1,10.3 103.1,7.7 C103.1,5.1 104.9,3.2 107.5,3.2 C109,3.2 110.1,4 110.8,5 L113.2,3.7 C112.2,2.1 110.4,0.6 107.5,0.6 C103.4,0.6 100.1,3.4 100.1,7.8 C100.2,12 103.5,14.8 107.3,14.8 Z" id="Shape" fill="#FFFFFF"></path>
                <polygon id="Shape" fill="#FFFFFF" points="126 12.1 119.4 12.1 119.4 9.1 125.8 9.1 125.8 6.6 119.4 6.6 119.4 3.8 126 3.8 126 1.3 116.6 1.3 116.6 14.6 126 14.6"></polygon>
                <polygon id="Shape" fill="#FFFFFF" points="134.3 14.6 136.6 5.5 138.9 14.6 141.9 14.6 145.7 1.3 142.6 1.3 140.2 10.9 137.7 1.3 135.5 1.3 133 10.9 130.7 1.3 127.5 1.3 131.3 14.6"></polygon>
                <path d="M153.6,14.8 C157.6,14.8 160.5,11.9 160.5,7.9 C160.5,3.9 157.6,1 153.6,1 C149.6,1 146.7,3.9 146.7,7.9 C146.7,11.9 149.5,14.8 153.6,14.8 Z M153.6,3.6 C156,3.6 157.6,5.5 157.6,8 C157.6,10.5 156,12.4 153.6,12.4 C151.1,12.4 149.6,10.5 149.6,8 C149.5,5.5 151.1,3.6 153.6,3.6 Z" id="Shape" fill="#FFFFFF"></path>
                <path d="M168.8,14.8 C172.8,14.8 175.7,11.9 175.7,7.9 C175.7,3.9 172.8,1 168.8,1 C164.8,1 161.9,3.9 161.9,7.9 C161.9,11.9 164.7,14.8 168.8,14.8 Z M168.8,3.6 C171.2,3.6 172.8,5.5 172.8,8 C172.8,10.5 171.2,12.4 168.8,12.4 C166.3,12.4 164.8,10.5 164.8,8 C164.7,5.5 166.3,3.6 168.8,3.6 Z" id="Shape" fill="#FFFFFF"></path>
                <polygon id="Shape" fill="#FFFFFF" points="180.5 5.9 186.8 14.6 189.6 14.6 189.6 1.3 186.7 1.3 186.7 9.7 180.6 1.3 177.7 1.3 177.7 14.6 180.5 14.6"></polygon>
                <polygon id="Shape" fill="#FFFFFF" points="92.6 129.1 90.8 129.1 93.7 136.6 95.6 136.6 98.5 129.1 96.7 129.1 94.7 134.9"></polygon>
                <rect id="Rectangle-path" fill="#FFFFFF" x="101.6" y="129.1" width="1.6" height="7.5"></rect>
                <polygon id="Shape" fill="#FFFFFF" points="108.6 129.1 107 129.1 107 136.6 108.6 136.6 108.6 131.7 112.1 136.6 113.7 136.6 113.7 129.1 112.1 129.1 112.1 133.8"></polygon>
                <polygon id="Shape" fill="#FFFFFF" points="117.1 130.5 119.2 130.5 119.2 136.6 120.8 136.6 120.8 130.5 123 130.5 123 129.1 117.1 129.1"></polygon>
                <path d="M130.8,136.6 L132.6,136.6 L129.7,129.1 L127.7,129.1 L124.8,136.6 L126.6,136.6 L127.1,135.3 L130.3,135.3 L130.8,136.6 Z M127.6,133.9 L128.8,130.7 L130,133.9 L127.6,133.9 Z" id="Shape" fill="#FFFFFF"></path>
                <path d="M138.9,130.4 C139.7,130.4 140.3,130.8 140.7,131.4 L142,130.7 C141.4,129.8 140.5,129 138.9,129 C136.7,129 134.9,130.5 134.9,132.9 C134.9,135.3 136.7,136.8 138.7,136.8 C141.1,136.8 142.5,135.2 142.5,132.5 L138.4,132.5 L138.4,133.9 L140.7,133.9 C140.5,134.7 139.8,135.4 138.8,135.4 C137.4,135.4 136.4,134.4 136.4,132.9 C136.4,131.4 137.6,130.4 138.9,130.4 Z" id="Shape" fill="#FFFFFF"></path>
                <polygon id="Shape" fill="#FFFFFF" points="151 130.5 151 129.1 145.7 129.1 145.7 136.6 151 136.6 151 135.2 147.3 135.2 147.3 133.5 150.9 133.5 150.9 132.1 147.3 132.1 147.3 130.5"></polygon>
                <path d="M165.6,133.9 C167.2,133.9 168.1,132.8 168.1,131.5 C168.1,130.2 167.2,129.1 165.6,129.1 L162.1,129.1 L162.1,136.6 L163.7,136.6 L163.7,133.9 L165.6,133.9 Z M163.7,130.5 L165.4,130.5 C166,130.5 166.5,130.9 166.5,131.5 C166.5,132.1 166,132.5 165.4,132.5 L163.7,132.5 L163.7,130.5 Z" id="Shape" fill="#FFFFFF"></path>
                <path d="M171.4,129.1 L171.4,133.6 C171.4,135.4 172.5,136.7 174.8,136.7 C177.1,136.7 178.2,135.4 178.2,133.6 L178.2,129.1 L176.6,129.1 L176.6,133.5 C176.6,134.5 176,135.3 174.9,135.3 C173.8,135.3 173.1,134.6 173.1,133.5 L173.1,129.1 L171.4,129.1 Z" id="Shape" fill="#FFFFFF"></path>
                <rect id="Rectangle-path" fill="#FFFFFF" x="182" y="129.1" width="1.6" height="7.5"></rect>
                <polygon id="Shape" fill="#FFFFFF" points="192.7 130.5 192.7 129.1 187.4 129.1 187.4 136.6 192.7 136.6 192.7 135.2 189 135.2 189 133.5 192.6 133.5 192.6 132.1 189 132.1 189 130.5"></polygon>
                <polygon id="Shape" fill="#FFFFFF" points="201.4 133.8 197.9 129.1 196.3 129.1 196.3 136.6 197.9 136.6 197.9 131.7 201.4 136.6 203 136.6 203 129.1 201.4 129.1"></polygon>
                <path d="M38.7,79 L63.5,79 C61,87.3 54.2,94.6 42.9,94.6 C28.4,94.6 17.9,83.5 17.9,68.5 C17.9,53.5 28.4,42.4 42.9,42.4 C51.2,42.4 58,47.2 61.7,52.8 L75.6,45.2 C69.6,35.8 59.3,27.5 42.8,27.5 C19.5,27.5 0.4,43.5 0.4,68.6 C0.4,93.6 19.5,109.7 41.2,109.7 C66.6,109.7 81.9,92.6 81.9,64.2 L38.7,64.2 L38.7,79 Z" id="Shape" fill="#FFFFFF"></path>
                <path d="M210.5,54.4 C210.5,39.6 200.3,28.8 183.7,28.8 L146.5,28.8 L146.5,108.2 L163.4,108.2 L163.4,80 L175.8,80 L191.4,108.2 L210.9,108.2 L192.9,77.9 C201.5,75.9 210.5,68.3 210.5,54.4 Z M181.3,65.1 L163.4,65.1 L163.4,43.6 L181.3,43.6 C188,43.6 193.1,47.6 193.1,54.2 C193.1,61 188,65.1 181.3,65.1 Z" id="Shape" fill="#FFFFFF"></path>
                <path d="M237.6,50.4 C237.6,45.6 241.6,42.5 248.8,42.5 C256.9,42.5 265.5,45.2 271.9,51.2 L281.3,38.6 C273.4,31.3 263,27.5 250.3,27.5 C231.6,27.5 220.2,38.5 220.2,51.7 C220.2,81.6 265.9,71.9 265.9,85.8 C265.9,90.4 261.5,94.6 252.1,94.6 C241.1,94.6 232.4,89.6 226.9,83.8 L217.6,97 C225.1,104.5 236.1,109.6 251.4,109.6 C272.7,109.6 283.2,98.6 283.2,84.1 C283.2,54.5 237.6,62.9 237.6,50.4 Z" id="Shape" fill="#FFFFFF"></path>
                <polygon id="Shape" fill="#FFFFFF" points="137.2 41.9 137.2 28.8 90.5 28.8 90.5 85.1 137.2 85.1 137.2 71.9 105 71.9 105 63 136.7 63 136.7 49.9 105 49.9 105 41.9"></polygon>
                <path d="M103.1,172.2 C101.5,172.2 100.1,172.8 99.1,173.8 L99.1,166.4 L95.6,166.4 L95.6,186.3 L99,186.3 L99,184.8 C100.1,185.9 101.5,186.6 103.2,186.6 C106.8,186.6 109.7,183.5 109.7,179.4 C109.6,175.3 106.7,172.2 103.1,172.2 Z M102.6,183.3 C100.7,183.3 99.1,181.6 99.1,179.4 C99.1,177.2 100.7,175.4 102.6,175.4 C104.5,175.4 106.1,177.1 106.1,179.4 C106.1,181.6 104.5,183.3 102.6,183.3 Z" id="Shape" fill="#FFFFFF"></path>
                <path d="M120.4,180.5 C120.4,182 119.3,183.2 117.7,183.2 C115.4,183.2 115.1,181.3 115.1,180.5 L115.1,172.5 L111.6,172.5 L111.6,180.5 C111.6,184.1 113.8,186.5 117.2,186.5 C118.5,186.5 119.5,186.1 120.3,185.4 L120.3,187 C120.3,188.3 119.6,189.6 117.7,189.6 C116.5,189.6 115.6,189.1 115.4,188.1 L111.7,188.1 C112.2,190.9 114.7,192.9 117.7,192.9 C121.4,192.9 123.8,190.4 123.8,186.7 L123.8,172.4 L120.3,172.4 L120.3,180.5 L120.4,180.5 Z" id="Shape" fill="#FFFFFF"></path>
                <rect id="Rectangle-path" fill="#FFFFFF" x="90.5" y="94.3" width="46.7" height="13.9"></rect>
                <g id="Group" transform="translate(135.000000, 161.000000)" fill="#FFDE00">
                    <g id="Shape">
                        <path d="M16.8,14.4 C14.7,14.4 13.8,15.8 13.7,17.1 L20,17.1 C19.9,15.9 19.1,14.4 16.8,14.4 Z"></path>
                        <path d="M44.4,14.6 C42.6,14.6 41.1,16.2 41.1,18.3 C41.1,20.3 42.6,21.9 44.4,21.9 C46.2,21.9 47.7,20.3 47.7,18.3 C47.7,16.2 46.3,14.6 44.4,14.6 Z"></path>
                        <path d="M60.3,0.3 L1.7,0.3 C1.1,0.3 0.7,0.7 0.7,1.3 L0.7,31.6 C0.7,32.2 1.1,32.6 1.7,32.6 L60.3,32.6 C60.9,32.6 61.3,32.2 61.3,31.6 L61.3,1.3 C61.3,0.7 60.8,0.3 60.3,0.3 Z M23.2,19.4 L13.7,19.4 C13.9,21 15.2,22.2 17.4,22.2 C18.5,22.2 20,21.8 20.8,21 L22.3,23.2 C21,24.4 19,25 17.1,25 C13.2,25 10.3,22.4 10.3,18.3 C10.3,14.6 13,11.6 16.9,11.6 C20.7,11.6 23.3,14.4 23.3,18.6 L23.3,19.4 L23.2,19.4 Z M30.7,25 C27.4,25 25,23.3 24.6,20.5 L27.9,20.5 C28.3,21.6 29.7,22 30.6,22 C31.9,22 32.9,21.6 32.9,20.9 C32.9,20.2 32.5,19.9 30.2,19.5 C27.9,19.2 24.8,18.5 24.8,15.7 C24.8,13.7 26.6,11.6 30.3,11.6 C33.2,11.6 35.4,13.2 35.9,15.6 L32.5,15.6 C32.3,15 31.6,14.5 30.4,14.5 C28.9,14.5 28.3,15 28.3,15.5 C28.3,16.2 29.2,16.4 30.8,16.6 C34,17.1 36.3,17.8 36.3,20.6 C36.3,23.2 34,25 30.7,25 Z M51,24.7 L47.9,24.7 L47.9,23.3 C46.9,24.3 45.5,24.9 44,24.9 C40.7,24.9 37.9,22 37.9,18.2 C37.9,14.4 40.7,11.5 44,11.5 C45.5,11.5 46.8,12 47.8,13 L47.8,6.1 L51.1,6.1 L51.1,24.7 L51,24.7 Z"></path>
                    </g>
                </g>
            </g>
        </g>
    </g>
</svg>